<svg xmlns="http://www.w3.org/2000/svg" viewBox="0 0 32 32" width="24" height="24">
  <path d="M22.229 16.889h-5.34v5.34c0 0.489-0.398 0.889-0.889 0.889s-0.889-0.4-0.889-0.889v-5.34h-5.34c-0.489 0-0.889-0.398-0.889-0.889s0.4-0.889 0.889-0.889h5.34v-5.34c0-0.489 0.398-0.889 0.889-0.889s0.889 0.4 0.889 0.889v5.34h5.34c0.489 0 0.889 0.398 0.889 0.889s-0.4 0.889-0.889 0.889zM16 1.778c-7.854 0-14.222 6.368-14.222 14.222s6.368 14.222 14.222 14.222c7.854 0 14.222-6.368 14.222-14.222s-6.368-14.222-14.222-14.222z" fill="#fff"></path>
</svg>